<svg xmlns="http://www.w3.org/2000/svg" width="25.106" height="48" viewBox="0 0 25.106 48">
  <rect id="Rectangle_Copy_4" data-name="Rectangle Copy 4" width="24" height="4" rx="2" transform="translate(1 44)" fill="#fff"/>
  <g id="Layer_2" data-name="Layer 2" transform="translate(-5.298 -1.51)">
    <path id="Trazado_1" data-name="Trazado 1" d="M17.846,35.49A3.013,3.013,0,0,1,15.6,34.482c-3.459-3.811-11.3-13.637-10.189-22.114a12.124,12.124,0,0,1,5.863-8.747A12.171,12.171,0,0,1,17.846,1.51,12.57,12.57,0,0,1,30.4,14.068c0,7.539-7.2,16.744-10.295,20.355a3.025,3.025,0,0,1-2.263,1.055Zm0-31.658A9.826,9.826,0,0,0,12.511,5.6a9.755,9.755,0,0,0-4.784,7.035c-.985,7.551,6.379,16.673,9.58,20.238a.668.668,0,0,0,.5.223.692.692,0,0,0,.516-.235c2.931-3.412,9.732-12.077,9.732-18.831A10.224,10.224,0,0,0,17.846,3.855Z" transform="translate(0)" fill="#fff"/>
    <path id="Trazado_2" data-name="Trazado 2" d="M17.675,2.51a11.034,11.034,0,0,0-5.98,1.923c-12.558,8.231.117,24.154,4.573,29.137a1.841,1.841,0,0,0,2.779,0C22.072,30.053,29.06,21.118,29.06,13.977A11.385,11.385,0,0,0,17.675,2.51Zm0,14.833a1.458,1.458,0,1,1,0,.012Z" transform="translate(0.172 0.173)" fill="#fff"/>
  </g>
</svg>
