<svg xmlns="http://www.w3.org/2000/svg" width="34.303" height="34" viewBox="0 0 34.303 34">
  <g id="XMLID_487_" transform="translate(0 -2.26)">
    <path id="XMLID_210_" d="M371.871,51.282a6.139,6.139,0,0,0-4.925-3.036,5.043,5.043,0,0,0-2.755.855v3.379a4.018,4.018,0,0,1,2.755-1.169c2.834,0,4.385,3.439,4.385,7.829s-1.55,7.829-4.385,7.829a3.875,3.875,0,0,1-2.693-1.169v3.418a5.024,5.024,0,0,0,2.693.815A6.139,6.139,0,0,0,371.871,67a15,15,0,0,0,0-15.715Z" transform="translate(-339.79 -42.905)" fill="#fff"/>
    <path id="XMLID_209_" d="M1.907,21.861a1.909,1.909,0,0,0,1.907-1.907v-6.7a3.043,3.043,0,0,1,6.086,0V15.35a1.648,1.648,0,1,0,3.3,0V13.872a3.662,3.662,0,0,1,3.658-3.658A.845.845,0,0,0,17.7,9.37V9.016a3.406,3.406,0,0,1,3.4-3.4h.956A1.348,1.348,0,0,0,23.4,4.267,2.01,2.01,0,0,0,21.395,2.26H3.022A3.025,3.025,0,0,0,0,5.282V19.954a1.909,1.909,0,0,0,1.907,1.907Z" fill="#fff"/>
    <path id="XMLID_208_" d="M24.083,109.588a1.375,1.375,0,0,1-1.375-1.375V85.119c-.067,0-.134.006-.2.006H21.55a1.2,1.2,0,0,0-1.2,1.2v.354A3.052,3.052,0,0,1,17.3,89.726,1.455,1.455,0,0,0,15.85,91.18v1.478a3.852,3.852,0,1,1-7.7,0V90.565a.839.839,0,0,0-1.678,0v6.7a4.117,4.117,0,0,1-3.235,4.016v6.935a1.375,1.375,0,0,1-1.375,1.375,1.375,1.375,0,0,0-1.375,1.375v1.23a1.375,1.375,0,0,0,1.375,1.375H24.084a1.375,1.375,0,0,0,1.375-1.375v-1.23A1.375,1.375,0,0,0,24.083,109.588Zm-15.244-2.2a1.1,1.1,0,1,1-2.2,0v-4.5a1.1,1.1,0,0,1,2.2,0Zm5.233,0a1.1,1.1,0,1,1-2.2,0V98.8a1.1,1.1,0,1,1,2.2,0Zm5.233,0a1.1,1.1,0,1,1-2.2,0V94.4a1.1,1.1,0,1,1,2.2,0Z" transform="translate(-0.451 -77.308)" fill="#fff"/>
  </g>
</svg>
