<?xml version="1.0" standalone="no"?>
<!DOCTYPE svg PUBLIC "-//W3C//DTD SVG 20010904//EN"
 "http://www.w3.org/TR/2001/REC-SVG-20010904/DTD/svg10.dtd">
<svg version="1.0" xmlns="http://www.w3.org/2000/svg"
 width="576.000000pt" height="178.000000pt" viewBox="0 0 576.000000 178.000000"
 preserveAspectRatio="xMidYMid meet">
<metadata>
Created by potrace 1.16, written by Peter Selinger 2001-2019
</metadata>
<g transform="translate(0.000000,178.000000) scale(0.100000,-0.100000)"
fill="#000000" stroke="none">
<path d="M335 1740 c-124 -18 -230 -101 -276 -215 l-24 -60 0 -575 0 -575 24
-59 c29 -72 98 -149 163 -182 25 -13 77 -28 115 -34 46 -7 870 -10 2588 -8
l2520 3 60 24 c81 32 164 115 196 196 l24 60 0 575 0 575 -24 60 c-32 81 -115
164 -196 196 l-60 24 -2530 1 c-1392 1 -2552 -2 -2580 -6z m1362 -370 c58 -35
58 -33 61 -432 2 -247 -1 -380 -8 -408 -14 -52 -70 -115 -118 -132 -29 -10
-156 -13 -562 -13 -512 0 -526 1 -564 21 -22 11 -54 37 -70 58 l-31 38 -3 396
c-3 432 -2 440 52 473 29 18 61 19 621 19 567 0 591 -1 622 -20z m843 -165 c0
-158 -1 -165 -20 -165 -11 0 -20 7 -20 15 0 13 -6 11 -29 -6 -23 -17 -37 -20
-65 -15 -64 12 -97 86 -76 166 19 72 100 100 152 53 17 -15 18 -13 18 50 0 60
2 67 20 67 19 0 20 -7 20 -165z m278 -3 c2 -157 2 -162 -18 -162 -11 0 -20 7
-20 16 0 13 -5 12 -26 -5 -38 -30 -77 -27 -116 8 -31 28 -33 34 -33 95 0 58 3
69 28 93 33 34 94 38 126 9 l21 -19 0 67 c0 59 2 67 18 64 15 -3 17 -20 20
-166z m-577 -9 c54 -146 55 -153 35 -153 -16 0 -25 10 -36 43 l-15 42 -62 3
-61 3 -17 -46 c-12 -31 -23 -45 -36 -45 -11 0 -19 2 -19 4 0 4 89 249 105 289
5 11 16 17 29 15 17 -2 31 -30 77 -155z m1067 76 c55 -19 81 -87 62 -159 -23
-84 -124 -106 -184 -39 -26 29 -28 37 -24 90 7 96 63 137 146 108z m-118 -614
l0 -225 -25 0 -25 0 0 225 0 225 25 0 25 0 0 -225z m1490 0 l0 -225 -25 0 -25
0 0 225 0 225 25 0 25 0 0 -225z m145 0 l0 -220 -22 -3 -23 -3 0 226 0 226 23
-3 22 -3 0 -220z m-2595 202 c0 -2 34 -95 75 -207 41 -112 75 -207 75 -212 0
-5 -12 -8 -27 -6 -23 3 -29 11 -46 61 l-19 58 -85 -3 -85 -3 -22 -55 c-19 -47
-26 -56 -50 -58 -24 -3 -28 -1 -22 15 4 10 39 103 77 207 38 103 72 192 75
197 5 8 54 13 54 6z m1614 -164 c22 -90 43 -163 46 -163 3 0 26 73 51 163 42
155 45 162 71 165 18 2 28 -2 32 -15 3 -10 24 -85 47 -168 22 -82 42 -151 44
-153 1 -1 22 74 45 168 40 161 44 170 66 170 16 0 24 -6 24 -17 0 -10 -24
-106 -54 -213 -50 -184 -55 -195 -78 -198 -24 -3 -27 3 -62 125 -20 70 -43
146 -50 168 l-13 40 -26 -85 c-14 -47 -36 -121 -49 -165 -17 -58 -29 -81 -42
-83 -10 -2 -22 0 -26 5 -7 7 -120 402 -120 419 0 3 12 4 28 2 26 -3 28 -7 66
-165z m1466 92 c0 -32 2 -35 30 -35 23 0 30 -4 30 -20 0 -16 -7 -20 -30 -20
l-31 0 3 -112 3 -113 28 -3 c21 -3 27 -9 27 -28 0 -21 -5 -24 -34 -24 -66 0
-75 20 -78 155 -3 116 -4 120 -25 123 -33 5 -31 42 2 42 22 0 25 4 25 35 0 31
3 35 25 35 22 0 25 -4 25 -35z m-2820 -55 c0 -20 0 -20 33 0 19 12 50 20 76
20 137 0 176 -240 50 -306 -41 -21 -103 -13 -135 17 l-24 22 0 -76 c0 -75 -1
-77 -25 -77 l-25 0 0 210 0 210 25 0 c18 0 25 -5 25 -20z m350 0 c0 -20 0 -20
33 0 38 24 97 26 136 5 59 -30 88 -145 57 -218 -24 -57 -61 -82 -121 -82 -43
0 -59 5 -79 24 l-26 24 0 -76 c0 -75 -1 -77 -25 -77 l-25 0 0 210 0 210 25 0
c18 0 25 -5 25 -20z m625 8 c33 -15 62 -63 71 -116 l7 -42 -117 0 c-127 0
-131 -2 -101 -59 17 -33 33 -41 84 -41 25 0 44 7 56 20 17 19 65 28 65 12 0
-19 -35 -55 -66 -68 -108 -45 -204 23 -204 144 0 66 23 118 64 143 35 21 102
25 141 7z m1062 -22 c22 -25 23 -35 23 -157 0 -124 -1 -129 -21 -129 -12 0
-23 8 -26 19 -5 19 -6 19 -39 -1 -69 -41 -164 -1 -164 68 0 68 28 89 134 100
l67 7 -3 31 c-5 56 -85 73 -126 26 -9 -11 -27 -20 -39 -20 -26 0 -27 1 -12 33
19 41 57 58 123 54 49 -3 63 -8 83 -31z m573 21 c37 -19 70 -74 70 -118 l0
-39 -110 0 -110 0 0 -25 c0 -14 11 -37 25 -50 31 -32 96 -34 125 -5 11 11 31
20 45 20 25 0 25 -1 11 -29 -41 -79 -187 -79 -235 0 -52 85 -23 219 53 249 31
13 98 11 126 -3z"/>
<path d="M478 1239 c-10 -5 -18 -19 -18 -31 0 -21 0 -21 21 -2 20 18 46 19
568 22 300 2 561 0 579 -3 18 -3 42 -15 53 -26 14 -14 19 -16 19 -4 0 8 -10
23 -22 35 -21 20 -32 20 -602 20 -376 -1 -587 -4 -598 -11z"/>
<path d="M2384 1219 c-12 -14 -19 -36 -19 -64 0 -55 25 -85 71 -85 23 0 38 7
48 22 27 38 17 117 -18 140 -21 15 -63 8 -82 -13z"/>
<path d="M2666 1224 c-21 -21 -30 -58 -22 -96 9 -44 24 -58 61 -58 45 0 70 31
70 85 0 52 -26 85 -66 85 -15 0 -35 -7 -43 -16z"/>
<path d="M3220 1220 c-14 -14 -20 -33 -20 -63 0 -57 22 -87 64 -87 46 0 71 30
71 85 0 75 -67 113 -115 65z"/>
<path d="M2555 701 c-36 -15 -58 -49 -62 -98 -9 -89 63 -150 133 -113 65 35
57 177 -11 208 -30 14 -33 14 -60 3z"/>
<path d="M2910 703 c-51 -19 -78 -87 -60 -153 12 -46 42 -70 85 -70 43 0 73
24 85 70 13 47 0 108 -27 133 -21 18 -62 28 -83 20z"/>
</g>
</svg>
